<svg id="레이어_1" data-name="레이어 1" xmlns="http://www.w3.org/2000/svg" viewBox="0 0 448.01 387.38"><defs><style>.cls-1{fill:#c6ff00;}</style></defs><title>vimeo</title><path class="cls-1" d="M447.8,153.6q-3,65.4-91.4,179.1Q265.05,451.5,201.8,451.5q-39.15,0-66.3-72.3C100.3,250,85.3,174.3,56.2,174.3c-3.4,0-15.1,7.1-35.2,21.1L0,168.2c51.6-45.3,100.9-95.7,131.8-98.5q52.35-5.1,64.4,71.5c28.7,181.5,41.4,208.9,93.6,126.7q28.05-44.4,30.2-67.6c4.8-45.9-35.8-42.8-63.3-31q33-108.15,126.2-105.1c45.8,1.2,67.5,31.1,64.9,89.4Z" transform="translate(0 -64.12)"/></svg>