<svg id="레이어_1" data-name="레이어 1" xmlns="http://www.w3.org/2000/svg" viewBox="0 0 186.53 186.6"><defs><style>.cls-1{font-size:18px;fill:#fff;font-family:Montserrat-Regular, Montserrat;}</style></defs><title>main_text</title><text class="cls-1" transform="translate(60.3 22.54) rotate(-23.01)">I</text><text class="cls-1" transform="translate(65.36 20.07) rotate(-15.48)">N</text><text class="cls-1" transform="translate(79.58 16.32) rotate(-6.23)">T</text><text class="cls-1" transform="translate(89.99 15.14) rotate(1.97)">E</text><text class="cls-1" transform="translate(102.1 15.52) rotate(11.18)">R</text><text class="cls-1" transform="matrix(0.93, 0.37, -0.37, 0.93, 114.92, 17.98)">N</text><text class="cls-1" transform="translate(128.57 23.42) rotate(31.59)">A</text><text class="cls-1" transform="translate(139.09 29.96) rotate(39.7)">T</text><text class="cls-1" transform="translate(147.15 36.82) rotate(45.64)">I</text><text class="cls-1" transform="matrix(0.6, 0.8, -0.8, 0.6, 151.27, 40.6)">O</text><text class="cls-1" transform="matrix(0.44, 0.9, -0.9, 0.44, 160.31, 52.74)">N</text><text class="cls-1" transform="translate(166.64 65.96) rotate(74.32)">A</text><text class="cls-1" transform="matrix(0.12, 0.99, -0.99, 0.12, 170.05, 78.5)">L</text><text class="cls-1" transform="matrix(0.02, 1, -1, 0.02, 171.21, 89.3)"> </text><text class="cls-1" transform="matrix(-0.09, 1, -1, -0.09, 171.53, 94.22)">C</text><text class="cls-1" transform="translate(170.39 107.17) rotate(105.52)">H</text><text class="cls-1" transform="translate(166.49 121.28) rotate(116.49)">O</text><text class="cls-1" transform="translate(159.66 134.78) rotate(126.81)">R</text><text class="cls-1" transform="translate(151.78 145.23) rotate(136)">E</text><text class="cls-1" transform="matrix(-0.83, 0.56, -0.56, -0.83, 143.21, 153.69)">O</text><text class="cls-1" transform="translate(130.65 162.13) rotate(156.57)">G</text><text class="cls-1" transform="translate(117.83 167.64) rotate(166.53)">R</text><text class="cls-1" transform="translate(105.09 170.68) rotate(176.1)">A</text><text class="cls-1" transform="matrix(-1, -0.1, 0.1, -1, 92.16, 171.55)">P</text><text class="cls-1" transform="matrix(-0.96, -0.27, 0.27, -0.96, 79.4, 170.42)">H</text><text class="cls-1" transform="translate(65.3 166.38) rotate(-154.6)">E</text><text class="cls-1" transform="translate(54.31 161.2) rotate(-145.33)">R</text><text class="cls-1" transform="translate(43.6 153.49) rotate(-138.71)"> </text><text class="cls-1" transform="translate(39.75 150.41) rotate(-132.14)">P</text><text class="cls-1" transform="translate(31.13 140.89) rotate(-122.73)">R</text><text class="cls-1" transform="matrix(-0.38, -0.92, 0.92, -0.38, 23.99, 129.96)">O</text><text class="cls-1" transform="translate(18.25 115.98) rotate(-101.32)">D</text><text class="cls-1" transform="translate(15.39 101.4) rotate(-90.93)">U</text><text class="cls-1" transform="matrix(0.16, -0.99, 0.99, 0.16, 15.25, 87.08)">C</text><text class="cls-1" transform="translate(17.41 74.37) rotate(-72.21)">T</text><text class="cls-1" transform="matrix(0.4, -0.92, 0.92, 0.4, 20.77, 64.36)">I</text><text class="cls-1" transform="matrix(0.52, -0.85, 0.85, 0.52, 22.75, 59.09)">O</text><text class="cls-1" transform="matrix(0.67, -0.74, 0.74, 0.67, 30.65, 46.22)">N</text><text class="cls-1" transform="translate(40.66 35.45) rotate(-38.27)">S</text><text x="-15.73" y="-20.7"></text></svg>